<svg xmlns="http://www.w3.org/2000/svg" fill="none" viewBox="0 0 12 10">
  <path fill="#fff" d="M11.6836 5c0 .177-.0729.3333-.2188.4688L7.4336 9.4921c-.1354.1302-.289.1953-.461.1953-.1718 0-.3176-.0573-.4374-.1719-.1146-.1146-.172-.2604-.172-.4375 0-.0833.0131-.164.0391-.2422.0313-.078.0756-.1432.1329-.1953l1.078-1.1172 2.6407-2.375.1406.336-2.078.1484H.9414c-.1876 0-.3386-.0599-.4532-.1797C.3737 5.3333.3164 5.1823.3164 5c0-.1823.0573-.3333.1719-.4531.1146-.1198.2656-.1797.4531-.1797h7.375l2.0781.1484-.1406.3438-2.6406-2.3828-1.0781-1.1172c-.0573-.0521-.1016-.1172-.1329-.1953a.7609.7609 0 0 1-.039-.2422c0-.1771.0573-.323.1719-.4375.1198-.1146.2656-.1719.4375-.1719.1718 0 .3255.0651.4609.1953l4.0312 4.0234c.1459.1355.2188.2917.2188.4688Z"/>
</svg>
