<svg xmlns="http://www.w3.org/2000/svg" fill="none" viewBox="0 0 274 40">
  <path fill="#000" fill-rule="evenodd" d="M28.2084.2357c.6441.4297.8181 1.3005.3887 1.945l-7.8088 11.7211c-.4293.6445-1.2995.8187-1.9436.389-.6441-.4297-.8181-1.3004-.3887-1.9449L26.2648.6247c.4293-.6445 1.2995-.8187 1.9436-.389Zm5.4926 5.4636c.5038.5881.4357 1.4736-.152 1.9777l-9.1103 7.8141c-.5877.5041-1.4726.436-1.9763-.1522-.5038-.5881-.4357-1.4735.152-1.9776l9.1103-7.8141c.5877-.5041 1.4725-.436 1.9763.1521ZM0 18.3332c0-.7745.6275-1.4025 1.4016-1.4025h33.8382c.774 0 1.4015.628 1.4015 1.4025a18.3392 18.3392 0 0 1-5.3659 12.9635 18.3143 18.3143 0 0 1-12.9547 5.3696 18.309 18.309 0 0 1-7.0111-1.3955 18.3163 18.3163 0 0 1-5.9436-3.9741A18.3393 18.3393 0 0 1 0 18.3332Zm2.8666 1.4026a15.5325 15.5325 0 0 0 4.4816 9.5774 15.5132 15.5132 0 0 0 10.9725 4.5481 15.512 15.512 0 0 0 10.9725-4.5481 15.5325 15.5325 0 0 0 4.4816-9.5774H2.8666Z" clip-rule="evenodd"/>
  <path fill="#000" d="M261.988 40c-7.401 0-11.998-3.5344-12.502-9.5933h5.045c.673 3.7587 3.196 5.6101 7.569 5.6101 3.812 0 6.223-1.7392 6.223-4.4881 0-2.0758-1.57-3.5344-4.485-4.0954l-5.494-1.0659c-4.093-.7855-8.017-2.6929-8.017-7.9103 0-4.6564 4.373-8.1908 10.988-8.1908 6.391 0 11.044 2.6929 11.605 8.8079h-4.99c-.56-3.1417-2.859-4.8247-6.671-4.8247-3.588 0-5.999 1.683-5.999 4.0954 0 2.3001 1.962 3.31 4.261 3.7588l5.831 1.122c4.036.7854 8.073 2.9734 8.073 8.0225 0 5.2735-4.71 8.7518-11.437 8.7518Zm-26.585 0c-8.297 0-13.511-6.3395-13.511-14.8669 0-8.4713 5.214-14.8668 13.511-14.8668 7.008 0 13.175 3.9832 12.502 16.1572h-20.911c.336 5.1613 2.747 9.4811 8.409 9.4811 3.757 0 6.223-1.9075 7.232-5.4979h4.934C246.504 36.0168 242.187 40 235.403 40Zm-8.297-17.3353h15.978c-.336-5.6663-2.971-8.3591-7.681-8.3591-5.158 0-7.68 3.7027-8.297 8.3591Zm-13.494 16.6062v-28.275h4.933v28.275h-4.933Zm-.281-33.0998V0h5.551v6.1711h-5.551Zm-28.794 33.0998V0h4.934v15.2596c1.794-3.0856 5.102-4.9931 9.25-4.9931 5.775 0 10.036 3.8149 10.036 11.3886v17.6158h-4.934V21.9356c0-4.9369-2.747-7.5176-6.615-7.5176-4.205 0-7.737 3.5344-7.737 8.5835v16.2694h-4.934ZM168.933 40c-8.242 0-13.568-6.3956-13.568-14.8669 0-8.4152 5.326-14.8668 13.624-14.8668 6.503 0 11.212 3.9271 12.109 10.3787h-4.989c-.785-3.9271-3.532-6.2833-7.176-6.2833-5.887 0-8.466 5.1052-8.466 10.7153 0 5.6663 2.579 10.8276 8.466 10.8276 3.7 0 6.167-1.9075 7.176-5.6101h4.933C179.977 36.0729 175.66 40 168.933 40Zm-41.454-.7293V10.9956h4.933v4.2637c1.851-3.1417 5.439-4.993 9.531-4.993 6.111 0 10.428 3.871 10.428 11.3886v17.6158h-4.934V21.9354c0-4.937-2.803-7.5176-6.951-7.5176-4.429 0-8.074 3.5344-8.074 8.5274v16.3255h-4.933ZM108.38 40c-5.887 0-10.0352-3.9271-10.0352-11.2764v-17.728h4.9332V28.387c0 4.9369 2.803 7.4615 6.84 7.4615s7.625-3.4783 7.625-8.5274V10.9956h4.933v28.2751h-4.933v-4.3759C115.893 38.2609 112.361 40 108.38 40Zm-54.9077-.7291V0h7.7928l11.9975 33.7169L85.2041 0h7.7367v39.2709h-4.8775V6.115L75.9536 39.271h-5.4381L58.3498 6.115v33.156h-4.8775Z"/>
</svg>
